<svg width="170" height="156" viewBox="0 0 170 156" fill="none" xmlns="http://www.w3.org/2000/svg">
<path d="M27 71.5C27 39.7436 52.7436 14 84.5 14C116.256 14 142 39.7436 142 71.5V73.5C142 106.361 115.361 133 82.5 133H27V71.5Z" fill="#550216"/>
<circle cx="84.5" cy="73.5" r="47.5" fill="white"/>
<line y1="13" x2="56" y2="13" stroke="#2E206B" stroke-width="2"/>
<line x1="114" y1="13" x2="170" y2="13" stroke="#2E206B" stroke-width="2"/>
<line y1="142" x2="56" y2="142" stroke="#2E206B" stroke-width="2"/>
<line x1="114" y1="142" x2="170" y2="142" stroke="#2E206B" stroke-width="2"/>
<line x1="1" y1="53" x2="1" y2="13" stroke="#2E206B" stroke-width="2"/>
<line x1="169" y1="53" x2="169" y2="13" stroke="#2E206B" stroke-width="2"/>
<line x1="1" y1="143" x2="1" y2="103" stroke="#2E206B" stroke-width="2"/>
<line x1="169" y1="143" x2="169" y2="103" stroke="#2E206B" stroke-width="2"/>
<line x1="12" y1="53" x2="12" stroke="#2E206B" stroke-width="2"/>
<line x1="157" y1="53" x2="157" stroke="#2E206B" stroke-width="2"/>
<line x1="12" y1="156" x2="12" y2="103" stroke="#2E206B" stroke-width="2"/>
<line x1="157" y1="156" x2="157" y2="103" stroke="#2E206B" stroke-width="2"/>
<line x1="12" y1="1" x2="56" y2="1" stroke="#2E206B" stroke-width="2"/>
<line x1="114" y1="1" x2="158" y2="1" stroke="#2E206B" stroke-width="2"/>
<line x1="12" y1="155" x2="56" y2="155" stroke="#2E206B" stroke-width="2"/>
<line x1="114" y1="155" x2="158" y2="155" stroke="#2E206B" stroke-width="2"/>
</svg>
