<svg width="160" height="160" viewBox="0 0 160 160" fill="none" xmlns="http://www.w3.org/2000/svg">
<path d="M72.1721 7.89163C76.1284 3.63098 82.8716 3.63097 86.8279 7.89162L112 35H47.7814C47.4839 35 47.3293 34.6454 47.5317 34.4274L56.8632 24.3781L72.1721 7.89163Z" fill="#550216"/>
<path d="M86.8279 152.108C82.8716 156.369 76.1284 156.369 72.1721 152.108L47 125H111.219C111.516 125 111.671 125.355 111.468 125.573L102.137 135.622L86.8279 152.108Z" fill="#550216"/>
<path d="M152.108 73.1721C156.369 77.1284 156.369 83.8716 152.108 87.8279L125 113V48.7814C125 48.4839 125.355 48.3293 125.573 48.5317L135.622 57.8632L152.108 73.1721Z" fill="#550216"/>
<path d="M7.89163 87.8279C3.63098 83.8716 3.63097 77.1284 7.89162 73.1721L35 48L35 112.219C35 112.516 34.6454 112.671 34.4274 112.468L24.3781 103.137L7.89163 87.8279Z" fill="#550216"/>
<rect x="35" y="35" width="90" height="90" fill="white"/>
</svg>
